<svg xmlns="http://www.w3.org/2000/svg" viewBox="0 0 200 200" width="200" height="200">
  <defs>
    <linearGradient id="bg2" x1="0" y1="0" x2="0" y2="1"><stop offset="0%" stop-color="#060809"/><stop offset="40%" stop-color="#0c0e12"/><stop offset="100%" stop-color="#0f1216"/></linearGradient>
    <linearGradient id="vignette2" x1="0.5" y1="0.5" x2="0.5" y2="0" r="0.8"><stop offset="0%" stop-color="transparent"/><stop offset="100%" stop-color="#050608"/></linearGradient>
    <linearGradient id="gr2" x1="0" y1="1" x2="0" y2="0"><stop offset="0%" stop-color="#00FF88"/><stop offset="100%" stop-color="#00dd77"/></linearGradient>
    <linearGradient id="metal2" x1="0" y1="0" x2="1" y2="1"><stop offset="0%" stop-color="#40454c"/><stop offset="50%" stop-color="#2a2e34"/><stop offset="100%" stop-color="#1c1f24"/></linearGradient>
    <filter id="glow2"><feGaussianBlur stdDeviation="1" result="b"/><feMerge><feMergeNode in="b"/><feMergeNode in="SourceGraphic"/></feMerge></filter>
  </defs>
  <rect width="200" height="200" rx="16" fill="url(#bg2)"/>
  <rect width="200" height="200" rx="16" fill="url(#vignette2)" opacity="0.5"/>
  <rect x="4" y="4" width="192" height="192" rx="14" fill="none" stroke="#00FF88" stroke-width="2" opacity="0.5"/>
  <rect x="8" y="8" width="184" height="184" rx="12" fill="none" stroke="#00FF88" stroke-width="0.8" opacity="0.25"/>
  <rect x="0" y="0" width="200" height="36" fill="#00FF88" opacity="0.12"/>
  <rect x="0" y="0" width="200" height="1" fill="#00FF88" opacity="0.5"/>
  <path d="M100 18 L104 24 L112 26 L106 31 L107 39 L100 36 L93 39 L94 31 L88 26 L96 24 Z" fill="none" stroke="#00FF88" stroke-width="1.2" opacity="0.95"/>
  <text x="100" y="32" text-anchor="middle" fill="#00FF88" font-family="Inter,Arial Black,Arial" font-size="11" font-weight="900" letter-spacing="0.2em">MEDELLIN</text>
  <g fill="url(#metal2)" stroke="#00FF88" stroke-width="1">
    <ellipse cx="68" cy="76" rx="10" ry="6"/><ellipse cx="68" cy="76" rx="5" ry="3" fill="none" stroke="#00FF88" opacity="0.8"/>
    <ellipse cx="100" cy="76" rx="10" ry="6"/><ellipse cx="100" cy="76" rx="5" ry="3" fill="none" stroke="#00FF88" opacity="0.8"/>
    <ellipse cx="132" cy="76" rx="10" ry="6"/><ellipse cx="132" cy="76" rx="5" ry="3" fill="none" stroke="#00FF88" opacity="0.8"/>
    <rect x="76" y="73" width="18" height="1.5" rx="0.8" fill="#00FF88" opacity="0.4"/>
    <rect x="108" y="73" width="18" height="1.5" rx="0.8" fill="#00FF88" opacity="0.4"/>
  </g>
  <text x="100" y="112" text-anchor="middle" fill="#00FF88" font-family="Inter,Arial Black,Arial" font-size="38" font-weight="900" filter="url(#glow2)">200</text>
  <text x="100" y="132" text-anchor="middle" fill="#00FF88" font-family="Inter,Arial" font-size="10" font-weight="700" letter-spacing="0.12em">MINIGUN AMMO</text>
  <line x1="40" y1="146" x2="160" y2="146" stroke="#00FF88" stroke-width="0.8" opacity="0.35"/>
  <text x="100" y="162" text-anchor="middle" fill="#00FF88" font-family="Inter,Arial" font-size="9" font-weight="700" letter-spacing="0.2em" opacity="0.9">MEDELLIN ROLEPLAY</text>
  <text x="100" y="176" text-anchor="middle" fill="#00FF88" font-family="Inter,Arial" font-size="8" font-weight="600" letter-spacing="0.15em" opacity="0.6">Munição exclusiva · Entrega no inventário</text>
</svg>
